<?xml version="1.0" standalone="no"?>
<!DOCTYPE svg PUBLIC "-//W3C//DTD SVG 20010904//EN"
 "http://www.w3.org/TR/2001/REC-SVG-20010904/DTD/svg10.dtd">
<svg version="1.0" xmlns="http://www.w3.org/2000/svg"
 width="512.000000pt" height="512.000000pt" viewBox="0 0 512.000000 512.000000"
 preserveAspectRatio="xMidYMid meet">

<g transform="translate(0.000000,512.000000) scale(0.100000,-0.100000)"
fill="#000000" stroke="none">
<path d="M2333 5030 c-771 -75 -1456 -495 -1868 -1146 -71 -111 -182 -337
-230 -468 -45 -123 -98 -329 -120 -466 -22 -142 -31 -485 -16 -633 7 -64 23
-169 36 -234 l24 -117 113 -114 c62 -63 147 -140 188 -171 72 -54 208 -130
259 -146 22 -7 22 -5 -12 56 -71 128 -150 336 -187 494 -23 100 -50 279 -50
334 l0 41 354 0 354 0 6 -47 c3 -27 8 -84 12 -128 6 -87 40 -304 47 -312 4 -3
202 91 215 102 2 2 -4 49 -12 106 -8 57 -18 143 -22 192 l-6 87 410 0 410 0
212 102 c117 56 207 104 201 106 -8 3 -11 149 -11 506 l0 503 143 7 c185 9
424 33 562 56 100 17 111 18 122 3 7 -8 37 -90 67 -182 57 -174 107 -396 127
-569 l12 -103 64 63 c35 35 82 86 103 113 l39 51 -19 94 c-35 167 -106 390
-184 581 -6 13 14 22 102 48 60 17 161 51 223 76 l114 43 37 -41 37 -41 7 28
c11 46 -3 186 -26 256 -52 155 -146 303 -289 452 -73 77 -112 108 -175 142
-234 127 -520 219 -811 262 -124 18 -438 26 -562 14z m97 -756 l0 -386 -97 6
c-182 13 -588 67 -601 81 -12 12 146 263 233 370 83 102 172 199 229 248 56
48 80 55 219 66 16 1 17 -24 17 -385z m410 338 c167 -137 360 -370 499 -604
l22 -36 -28 -6 c-95 -20 -409 -57 -605 -71 l-88 -7 0 387 0 387 78 -7 c69 -6
82 -11 122 -43z m458 -88 c130 -49 287 -130 413 -213 113 -75 239 -176 239
-191 0 -19 -382 -120 -387 -103 -2 5 -32 57 -67 115 -71 118 -181 271 -263
366 -30 34 -50 62 -43 62 6 0 55 -16 108 -36z m-1526 -113 c-53 -70 -131 -188
-172 -260 l-75 -132 -37 5 c-20 2 -105 23 -188 46 -176 50 -174 37 -27 151
101 78 229 159 338 215 84 42 228 103 246 104 7 0 -31 -58 -85 -129z m-522
-540 c63 -21 129 -42 147 -45 l32 -7 -21 -52 c-40 -102 -99 -284 -128 -397
-50 -199 -70 -331 -96 -637 l-6 -63 -354 0 -354 0 0 48 c0 112 48 356 102 516
83 248 240 525 394 696 l35 39 67 -30 c37 -17 119 -48 182 -68z m480 -116
c116 -21 385 -53 500 -60 52 -3 119 -8 148 -11 l52 -5 0 -505 0 -504 -507 0
-506 0 7 126 c13 240 55 497 118 714 34 120 86 260 96 260 4 0 45 -7 92 -15z"/>
<path d="M4159 4493 c177 -178 230 -468 150 -828 -57 -258 -181 -513 -329
-677 -31 -35 -46 -58 -37 -58 31 0 195 63 282 109 186 97 340 215 495 378
l102 108 -6 85 c-24 335 -189 624 -461 808 -52 35 -235 132 -249 132 -2 0 21
-26 53 -57z"/>
<path d="M4736 3225 l-149 -150 12 -55 c20 -99 41 -254 41 -302 l0 -48 -355 0
-354 0 -7 50 -7 50 -96 -6 c-145 -8 -144 -8 -139 -54 l4 -40 -350 -2 -350 -3
-23 -90 c-12 -49 -23 -96 -23 -102 0 -10 81 -13 372 -13 l371 0 -6 -117 c-11
-213 -61 -464 -142 -708 -60 -183 -113 -305 -134 -305 -9 0 -66 9 -126 20
-165 29 -369 51 -495 53 l-113 2 -99 -390 c-54 -214 -101 -391 -103 -394 -3
-2 -11 2 -20 9 -13 11 -15 3 -15 -69 l0 -81 -62 6 c-117 12 -121 13 -198 99
-39 44 -104 124 -143 177 -69 94 -72 96 -97 84 -14 -7 -60 -26 -102 -41 -43
-15 -78 -30 -78 -34 0 -3 27 -43 60 -88 32 -46 55 -83 50 -83 -16 0 -157 58
-229 94 l-68 35 -79 -14 c-184 -32 -372 -28 -518 10 -32 9 -60 14 -62 12 -7
-7 172 -147 293 -226 758 -505 1741 -545 2548 -103 207 113 378 243 555 421
409 410 652 922 710 1495 18 173 8 497 -20 655 -21 120 -82 360 -97 384 -5 8
-60 -40 -157 -138z m-96 -806 c0 -110 -53 -371 -107 -528 -86 -250 -248 -525
-425 -720 l-47 -52 -118 44 c-65 25 -156 57 -203 72 -47 15 -87 29 -88 31 -2
1 21 65 51 141 123 308 191 599 217 917 5 71 10 131 10 132 0 2 160 4 355 4
l355 0 0 -41z m-1656 -1249 c163 -21 316 -47 323 -54 7 -7 -111 -199 -190
-310 -39 -55 -110 -146 -158 -202 -97 -113 -77 -103 -251 -120 l-68 -7 0 363
0 363 97 -7 c53 -4 165 -16 247 -26z m701 -134 c66 -19 140 -43 164 -53 l45
-19 -55 -44 c-80 -64 -222 -154 -329 -209 -95 -49 -250 -115 -256 -109 -2 2
29 49 67 103 71 100 219 341 219 357 0 13 20 10 145 -26z"/>
<path d="M2355 2347 c-237 -117 -616 -304 -844 -415 l-414 -204 151 -89 c84
-50 152 -93 152 -98 0 -21 -66 -95 -107 -122 -193 -122 -474 -111 -746 29 -92
46 -187 111 -246 166 l-33 31 7 -35 c4 -19 21 -72 37 -116 97 -270 362 -520
645 -608 265 -82 645 -31 990 134 l103 49 158 -103 c86 -57 160 -101 163 -97
6 6 429 1668 429 1684 0 4 -3 7 -7 7 -5 -1 -202 -96 -438 -213z"/>
</g>
</svg>
