<?xml version="1.0" standalone="no"?>
<!DOCTYPE svg PUBLIC "-//W3C//DTD SVG 20010904//EN"
 "http://www.w3.org/TR/2001/REC-SVG-20010904/DTD/svg10.dtd">
<svg version="1.0" xmlns="http://www.w3.org/2000/svg"
 width="1300.000000pt" height="1300.000000pt" viewBox="0 0 1300.000000 1300.000000"
 preserveAspectRatio="xMidYMid meet">

<g transform="translate(0.000000,1300.000000) scale(0.100000,-0.100000)"
fill="#000000" stroke="none">
<path d="M6175 11719 c-819 -57 -1593 -298 -2275 -708 -369 -222 -628 -422
-948 -736 -213 -208 -442 -472 -574 -663 -79 -114 -213 -318 -246 -377 -19
-33 -44 -76 -55 -95 -62 -109 -164 -318 -232 -475 -190 -443 -312 -886 -369
-1345 -60 -483 -60 -840 0 -1320 120 -958 520 -1860 1164 -2626 91 -109 353
-376 476 -487 603 -543 1358 -947 2124 -1137 463 -115 787 -154 1265 -154 515
1 966 63 1413 196 40 11 74 19 77 17 2 -3 15 -84 28 -181 26 -183 34 -206 84
-239 38 -25 116 -25 157 0 17 11 92 88 166 172 74 85 176 198 225 253 50 54
106 118 125 140 96 113 233 261 241 261 8 0 48 -66 498 -815 239 -397 250
-414 291 -435 61 -31 108 -21 226 51 60 37 123 74 139 84 17 9 62 36 100 60
39 24 95 58 125 75 97 56 494 297 524 318 40 28 69 97 60 144 -4 20 -29 73
-57 117 -28 45 -64 106 -82 136 -18 30 -72 120 -120 200 -48 80 -102 170 -120
200 -60 105 -92 149 -100 142 -5 -4 -5 -2 -2 5 7 11 -9 40 -103 193 -26 41
-61 101 -79 133 -18 31 -37 57 -43 57 -6 0 -8 3 -5 7 4 3 -2 21 -13 38 l-20
32 57 16 c32 9 105 27 163 41 449 107 857 209 879 221 68 35 84 150 31 218
-11 13 -144 113 -297 222 -153 109 -287 206 -297 216 -19 17 -18 19 16 71 19
29 47 76 63 103 15 28 31 55 35 60 27 35 186 349 252 498 141 321 270 732 337
1077 31 156 69 473 81 665 48 808 -98 1609 -431 2362 -325 733 -825 1377
-1478 1903 -406 327 -887 597 -1396 785 -178 66 -195 71 -420 135 -513 144
-1129 207 -1660 169z m641 -309 c324 -25 556 -63 849 -136 873 -219 1688 -695
2286 -1335 224 -239 335 -378 513 -645 451 -676 734 -1508 787 -2314 14 -214
6 -651 -16 -840 -52 -457 -172 -919 -342 -1323 -123 -293 -369 -746 -397 -730
-42 26 -192 140 -194 148 -1 6 33 71 77 145 297 509 493 1069 581 1660 11 78
40 400 40 458 l0 32 -1155 0 -1155 0 0 -114 c0 -210 -52 -943 -69 -973 -5 -9
-40 11 -121 70 l-115 83 2 55 c1 30 9 141 18 248 8 106 18 292 22 412 l6 219
-901 0 -902 0 0 -804 0 -803 163 -7 c214 -9 489 -25 662 -39 l140 -12 16 -130
c9 -71 15 -131 14 -132 -1 -2 -78 4 -171 12 -214 18 -442 32 -656 41 l-168 6
0 -1231 0 -1231 28 6 c207 47 395 155 570 326 191 187 410 495 523 734 17 35
34 66 38 68 4 3 18 -68 30 -157 39 -294 43 -250 -34 -369 -130 -199 -320 -423
-448 -530 -32 -26 -52 -48 -45 -48 49 0 380 80 536 129 64 20 94 25 97 18 5
-20 35 -250 32 -253 -19 -20 -488 -136 -637 -159 -368 -55 -429 -60 -805 -60
-420 0 -606 17 -972 91 -652 130 -1288 407 -1808 784 -113 82 -154 115 -337
265 -141 115 -499 487 -604 626 -10 14 -61 81 -112 149 -535 707 -874 1614
-933 2500 -7 111 -9 277 -5 455 5 259 15 376 47 607 12 82 12 89 -7 110 l-19
23 21 -17 c20 -18 21 -18 53 130 132 603 324 1079 640 1582 148 237 289 421
525 686 30 35 42 55 35 63 -6 8 -6 8 3 1 8 -6 51 29 141 116 676 651 1497
1078 2432 1263 131 26 429 64 580 74 121 8 503 6 621 -3z m3324 -1303 c0 -2
-12 -14 -27 -28 l-28 -24 24 28 c23 25 31 32 31 24z m-80 -80 c0 -2 -12 -14
-27 -28 l-28 -24 24 28 c23 25 31 32 31 24z m1210 -2490 c0 -2 -12 -14 -27
-28 l-28 -24 24 28 c23 25 31 32 31 24z m-1140 -1052 c13 -14 21 -25 18 -25
-2 0 -15 11 -28 25 -13 14 -21 25 -18 25 2 0 15 -11 28 -25z m80 -10 l-34 -35
34 -37 35 -38 -40 37 -39 38 34 35 c19 19 36 35 39 35 3 0 -10 -16 -29 -35z
m-60 -58 c0 -2 -12 -14 -27 -28 l-28 -24 24 28 c23 25 31 32 31 24z m140 -92
c13 -14 21 -25 18 -25 -2 0 -15 11 -28 25 -13 14 -21 25 -18 25 2 0 15 -11 28
-25z m-220 12 c0 -2 -12 -14 -27 -28 l-28 -24 24 28 c23 25 31 32 31 24z m300
-92 c13 -14 21 -25 18 -25 -2 0 -15 11 -28 25 -13 14 -21 25 -18 25 2 0 15
-11 28 -25z m-380 12 c0 -2 -12 -14 -27 -28 l-28 -24 24 28 c23 25 31 32 31
24z m460 -92 c13 -14 21 -25 18 -25 -2 0 -15 11 -28 25 -13 14 -21 25 -18 25
2 0 15 -11 28 -25z m-540 12 c0 -2 -12 -14 -27 -28 l-28 -24 24 28 c23 25 31
32 31 24z m620 -92 c13 -14 21 -25 18 -25 -2 0 -15 11 -28 25 -13 14 -21 25
-18 25 2 0 15 -11 28 -25z m-700 12 c0 -2 -12 -14 -27 -28 l-28 -24 24 28 c23
25 31 32 31 24z m780 -92 c13 -14 21 -25 18 -25 -2 0 -15 11 -28 25 -13 14
-21 25 -18 25 2 0 15 -11 28 -25z m-860 12 c0 -2 -12 -14 -27 -28 l-28 -24 24
28 c23 25 31 32 31 24z m940 -92 c13 -14 21 -25 18 -25 -2 0 -15 11 -28 25
-13 14 -21 25 -18 25 2 0 15 -11 28 -25z m-1020 12 c0 -2 -12 -14 -27 -28
l-28 -24 24 28 c23 25 31 32 31 24z m1100 -92 c13 -14 21 -25 18 -25 -2 0 -15
11 -28 25 -13 14 -21 25 -18 25 2 0 15 -11 28 -25z m-1180 12 c0 -2 -12 -14
-27 -28 l-28 -24 24 28 c23 25 31 32 31 24z m1260 -92 c13 -14 21 -25 18 -25
-2 0 -15 11 -28 25 -13 14 -21 25 -18 25 2 0 15 -11 28 -25z m-1340 12 c0 -2
-12 -14 -27 -28 l-28 -24 24 28 c23 25 31 32 31 24z m-80 -80 c0 -2 -12 -14
-27 -28 l-28 -24 24 28 c23 25 31 32 31 24z m-1406 -212 c70 -49 157 -112 193
-139 36 -26 89 -65 118 -85 56 -39 284 -200 325 -230 29 -22 255 -183 770
-549 341 -243 436 -311 600 -430 36 -25 110 -78 165 -117 140 -99 180 -127
352 -251 84 -60 187 -134 230 -164 43 -30 84 -60 91 -67 7 -7 19 -13 25 -13
32 -1 -37 -22 -228 -68 -115 -28 -323 -79 -461 -112 -138 -34 -265 -70 -282
-80 -31 -19 -72 -91 -72 -128 0 -33 -6 -23 448 -776 294 -489 329 -551 314
-562 -45 -30 -673 -404 -679 -404 -7 0 -84 126 -286 464 -27 45 -59 97 -71
116 -13 19 -67 109 -121 200 -54 91 -109 183 -122 205 -137 223 -182 291 -204
308 -37 27 -108 33 -147 13 -23 -12 -476 -510 -655 -721 -14 -16 -28 -28 -31
-25 -3 3 -14 80 -26 170 -22 170 -73 554 -115 860 -13 96 -26 198 -29 225 -4
28 -33 250 -67 495 -33 245 -64 481 -69 525 -5 44 -32 244 -59 445 -28 201
-62 457 -76 570 -14 113 -35 265 -45 338 -11 73 -20 138 -20 143 0 6 24 -7 54
-28 29 -21 110 -78 180 -128z m1326 132 c0 -2 -12 -14 -27 -28 l-28 -24 24 28
c23 25 31 32 31 24z m-80 -80 c0 -2 -12 -14 -27 -28 l-28 -24 24 28 c23 25 31
32 31 24z m1900 -92 c13 -14 21 -25 18 -25 -2 0 -15 11 -28 25 -13 14 -21 25
-18 25 2 0 15 -11 28 -25z m-1980 12 c0 -2 -12 -14 -27 -28 l-28 -24 24 28
c23 25 31 32 31 24z m-7320 -30 c0 -2 -10 -12 -22 -23 l-23 -19 19 23 c18 21
26 27 26 19z m9190 -1761 c0 -2 -8 -10 -17 -17 -16 -13 -17 -12 -4 4 13 16 21
21 21 13z m-40 -39 c0 -2 -12 -14 -27 -28 l-28 -24 24 28 c23 25 31 32 31 24z
m-80 -80 c0 -2 -12 -14 -27 -28 l-28 -24 24 28 c23 25 31 32 31 24z m-160
-161 c0 -2 -8 -10 -17 -17 -16 -13 -17 -12 -4 4 13 16 21 21 21 13z m-80 -79
c0 -2 -12 -14 -27 -28 l-28 -24 24 28 c23 25 31 32 31 24z m-80 -80 c0 -2 -12
-14 -27 -28 l-28 -24 24 28 c23 25 31 32 31 24z m-7440 -80 c0 -2 -12 -14 -27
-28 l-28 -24 24 28 c23 25 31 32 31 24z m7360 0 c0 -2 -12 -14 -27 -28 l-28
-24 24 28 c23 25 31 32 31 24z m-625 -57 c10 -11 16 -20 13 -20 -3 0 -13 9
-23 20 -10 11 -16 20 -13 20 3 0 13 -9 23 -20z m-6815 -23 c0 -2 -12 -14 -27
-28 l-28 -24 24 28 c23 25 31 32 31 24z m7360 0 c0 -2 -12 -14 -27 -28 l-28
-24 24 28 c23 25 31 32 31 24z m-240 -241 c0 -2 -8 -10 -17 -17 -16 -13 -17
-12 -4 4 13 16 21 21 21 13z m-80 -79 c0 -2 -12 -14 -27 -28 l-28 -24 24 28
c23 25 31 32 31 24z m310 -192 c19 -19 32 -35 29 -35 -3 0 -20 16 -39 35 -19
19 -32 35 -29 35 3 0 20 -16 39 -35z m-1030 -528 c0 -2 -12 -14 -27 -28 l-28
-24 24 28 c23 25 31 32 31 24z m-80 -80 c0 -2 -12 -14 -27 -28 l-28 -24 24 28
c23 25 31 32 31 24z"/>
<path d="M6340 11113 c-101 -17 -308 -113 -412 -191 -311 -234 -598 -647 -824
-1190 -72 -170 -187 -507 -230 -667 -60 -230 -93 -359 -91 -361 1 -1 72 -14
157 -28 389 -64 978 -116 1306 -116 l124 0 0 1280 c0 704 -1 1279 -2 1279 -2
-1 -14 -4 -28 -6z m-460 -398 c13 -14 21 -25 18 -25 -2 0 -15 11 -28 25 -13
14 -21 25 -18 25 2 0 15 -11 28 -25z m80 -80 c13 -14 21 -25 18 -25 -2 0 -15
11 -28 25 -13 14 -21 25 -18 25 2 0 15 -11 28 -25z m80 -80 c13 -14 21 -25 18
-25 -2 0 -15 11 -28 25 -13 14 -21 25 -18 25 2 0 15 -11 28 -25z m80 -80 c13
-14 21 -25 18 -25 -2 0 -15 11 -28 25 -13 14 -21 25 -18 25 2 0 15 -11 28 -25z
m80 -80 c13 -14 21 -25 18 -25 -2 0 -15 11 -28 25 -13 14 -21 25 -18 25 2 0
15 -11 28 -25z m80 -80 c13 -14 21 -25 18 -25 -2 0 -15 11 -28 25 -13 14 -21
25 -18 25 2 0 15 -11 28 -25z m80 -379 c0 -2 -8 -10 -17 -17 -16 -13 -17 -12
-4 4 13 16 21 21 21 13z m-870 -869 c0 -2 -10 -12 -22 -23 l-23 -19 19 23 c18
21 26 27 26 19z"/>
<path d="M6630 9834 l0 -1284 58 5 c31 2 138 7 237 10 343 9 901 66 1198 121
73 14 87 19 87 35 0 17 -26 122 -91 369 -92 347 -291 834 -460 1127 -119 206
-281 424 -398 537 l-40 40 -23 -20 -23 -19 20 24 20 23 -50 45 c-135 120 -351
235 -492 262 l-43 8 0 -1283z m50 81 c13 -14 21 -25 18 -25 -2 0 -15 11 -28
25 -13 14 -21 25 -18 25 2 0 15 -11 28 -25z m80 -80 c13 -14 21 -25 18 -25 -2
0 -15 11 -28 25 -13 14 -21 25 -18 25 2 0 15 -11 28 -25z m80 -80 c13 -14 21
-25 18 -25 -2 0 -15 11 -28 25 -13 14 -21 25 -18 25 2 0 15 -11 28 -25z m80
-80 c13 -14 21 -25 18 -25 -2 0 -15 11 -28 25 -13 14 -21 25 -18 25 2 0 15
-11 28 -25z m80 -80 c13 -14 21 -25 18 -25 -2 0 -15 11 -28 25 -13 14 -21 25
-18 25 2 0 15 -11 28 -25z m80 -80 c13 -14 21 -25 18 -25 -2 0 -15 11 -28 25
-13 14 -21 25 -18 25 2 0 15 -11 28 -25z m80 -80 c13 -14 21 -25 18 -25 -2 0
-15 11 -28 25 -13 14 -21 25 -18 25 2 0 15 -11 28 -25z m80 -80 c13 -14 21
-25 18 -25 -2 0 -15 11 -28 25 -13 14 -21 25 -18 25 2 0 15 -11 28 -25z m80
-80 c13 -14 21 -25 18 -25 -2 0 -15 11 -28 25 -13 14 -21 25 -18 25 2 0 15
-11 28 -25z m80 -80 c13 -14 21 -25 18 -25 -2 0 -15 11 -28 25 -13 14 -21 25
-18 25 2 0 15 -11 28 -25z"/>
<path d="M5615 11074 c-33 -7 -73 -16 -90 -19 -254 -49 -633 -176 -908 -304
-49 -23 -90 -41 -92 -41 -14 0 -274 -148 -400 -227 -195 -122 -242 -155 -411
-289 -285 -226 -560 -503 -768 -774 -54 -70 -56 -75 -39 -88 33 -25 309 -160
440 -216 182 -77 473 -178 712 -246 195 -55 421 -110 453 -110 11 0 27 46 58
168 149 582 314 1014 533 1399 163 286 366 543 566 716 60 53 55 56 -54 31z
m-44 -51 c13 -16 12 -17 -3 -4 -10 7 -18 15 -18 17 0 8 8 3 21 -13z m-2296
-1293 c10 -11 16 -20 13 -20 -3 0 -13 9 -23 20 -10 11 -16 20 -13 20 3 0 13
-9 23 -20z m580 -580 c10 -11 16 -20 13 -20 -3 0 -13 9 -23 20 -10 11 -16 20
-13 20 3 0 13 -9 23 -20z"/>
<path d="M7362 11015 c234 -210 454 -519 648 -910 163 -330 295 -692 395
-1085 26 -102 51 -202 57 -224 l9 -38 46 7 c207 31 837 221 1078 325 27 12 66
28 85 37 65 28 395 194 414 208 18 13 16 18 -35 82 -100 129 -198 240 -341
388 -559 579 -1275 999 -2042 1200 -98 26 -187 44 -197 42 -11 -3 -17 -2 -14
3 4 6 -140 40 -173 40 -7 0 24 -34 70 -75z m2378 -1308 c0 -2 -12 -14 -27 -28
l-28 -24 24 28 c23 25 31 32 31 24z m-80 -80 c0 -2 -12 -14 -27 -28 l-28 -24
24 28 c23 25 31 32 31 24z m-80 -80 c0 -2 -12 -14 -27 -28 l-28 -24 24 28 c23
25 31 32 31 24z m-80 -80 c0 -2 -12 -14 -27 -28 l-28 -24 24 28 c23 25 31 32
31 24z m-80 -80 c0 -2 -12 -14 -27 -28 l-28 -24 24 28 c23 25 31 32 31 24z
m-80 -80 c0 -2 -12 -14 -27 -28 l-28 -24 24 28 c23 25 31 32 31 24z m-80 -80
c0 -2 -12 -14 -27 -28 l-28 -24 24 28 c23 25 31 32 31 24z"/>
<path d="M2721 9108 c-139 -219 -291 -506 -379 -714 -147 -350 -261 -781 -312
-1174 -11 -85 -30 -337 -30 -397 l0 -33 1155 0 1155 0 0 128 c0 394 62 1038
139 1446 26 136 26 135 -1 140 -172 37 -722 185 -750 202 -5 4 -66 25 -136 49
-239 81 -591 239 -757 339 -33 20 -62 36 -65 36 -3 0 -12 -10 -19 -22z m579
-2251 c0 -2 -12 -14 -27 -28 l-28 -24 24 28 c23 25 31 32 31 24z"/>
<path d="M10175 9084 c-306 -175 -712 -337 -1150 -459 -88 -25 -182 -51 -210
-59 -42 -12 -189 -45 -271 -61 -20 -4 -20 -5 13 -187 71 -393 132 -1042 133
-1415 l0 -113 1156 0 1156 0 -7 113 c-12 213 -25 326 -61 536 -75 444 -231
903 -444 1310 -73 140 -218 381 -228 381 -4 0 -43 -21 -87 -46z m-1005 -1639
c13 -14 21 -25 18 -25 -2 0 -15 11 -28 25 -13 14 -21 25 -18 25 2 0 15 -11 28
-25z m80 -80 c13 -14 21 -25 18 -25 -2 0 -15 11 -28 25 -13 14 -21 25 -18 25
2 0 15 -11 28 -25z m80 -80 c13 -14 21 -25 18 -25 -2 0 -15 11 -28 25 -13 14
-21 25 -18 25 2 0 15 -11 28 -25z m80 -80 c13 -14 21 -25 18 -25 -2 0 -15 11
-28 25 -13 14 -21 25 -18 25 2 0 15 -11 28 -25z m1540 12 c0 -2 -12 -14 -27
-28 l-28 -24 24 28 c23 25 31 32 31 24z m-1460 -92 c13 -14 21 -25 18 -25 -2
0 -15 11 -28 25 -13 14 -21 25 -18 25 2 0 15 -11 28 -25z m1380 12 c0 -2 -12
-14 -27 -28 l-28 -24 24 28 c23 25 31 32 31 24z m-1300 -92 c13 -14 21 -25 18
-25 -2 0 -15 11 -28 25 -13 14 -21 25 -18 25 2 0 15 -11 28 -25z m1220 12 c0
-2 -12 -14 -27 -28 l-28 -24 24 28 c23 25 31 32 31 24z m-1140 -92 c13 -14 21
-25 18 -25 -2 0 -15 11 -28 25 -13 14 -21 25 -18 25 2 0 15 -11 28 -25z m1060
12 c0 -2 -12 -14 -27 -28 l-28 -24 24 28 c23 25 31 32 31 24z m-980 -92 c13
-14 21 -25 18 -25 -2 0 -15 11 -28 25 -13 14 -21 25 -18 25 2 0 15 -11 28 -25z
m900 12 c0 -2 -12 -14 -27 -28 l-28 -24 24 28 c23 25 31 32 31 24z"/>
<path d="M4726 8433 c-9 -31 -44 -240 -70 -423 -42 -284 -81 -779 -89 -1123
l-2 -97 829 0 829 0 -24 28 -24 27 31 -27 c26 -25 38 -28 97 -28 l67 0 0 755
0 755 -137 0 c-338 0 -941 54 -1350 121 -67 10 -129 22 -137 25 -8 3 -16 -2
-20 -13z"/>
<path d="M8130 8424 c-387 -65 -977 -119 -1385 -127 l-110 -2 -3 -752 -2 -753
900 0 900 0 0 113 c0 210 -34 698 -66 957 -16 130 -79 514 -92 560 l-7 26
-135 -22z"/>
<path d="M2004 6433 c24 -348 48 -516 117 -812 116 -498 349 -1043 612 -1431
l51 -75 210 105 c392 196 795 334 1370 471 65 15 120 30 123 33 3 3 -4 53 -16
113 -93 474 -161 1131 -161 1561 l0 132 -1156 0 -1156 0 6 -97z m879 3 c-10
-13 -21 -22 -26 -19 -4 2 3 13 15 23 30 26 32 25 11 -4z"/>
<path d="M4567 6408 c10 -516 84 -1195 174 -1591 11 -45 13 -48 38 -43 14 3
85 15 156 26 72 11 157 25 190 30 222 36 942 90 1203 90 l42 0 0 805 0 805
-902 0 -903 0 2 -122z"/>
<path d="M6035 4649 c-228 -11 -563 -36 -710 -55 -143 -18 -508 -74 -514 -80
-8 -8 86 -354 148 -544 206 -622 505 -1151 818 -1444 186 -175 360 -273 566
-320 l27 -6 0 1230 0 1230 -82 -2 c-46 0 -159 -5 -253 -9z m-554 -826 c13 -16
12 -17 -3 -4 -10 7 -18 15 -18 17 0 8 8 3 21 -13z m870 -870 c13 -16 12 -17
-3 -4 -10 7 -18 15 -18 17 0 8 8 3 21 -13z m-251 -607 c0 -2 -8 -10 -17 -17
-16 -13 -17 -12 -4 4 13 16 21 21 21 13z"/>
<path d="M4520 4462 c-14 -2 -137 -33 -275 -68 -300 -76 -573 -163 -790 -251
-161 -66 -465 -209 -497 -234 -19 -15 -22 -11 138 -199 91 -107 309 -325 428
-428 271 -237 472 -379 796 -564 262 -150 658 -313 981 -403 110 -31 409 -97
422 -92 5 1 -9 16 -32 31 -54 38 -241 232 -314 326 -332 430 -588 986 -772
1679 -30 112 -55 204 -57 205 -2 1 -14 0 -28 -2z m-700 -675 c0 -2 -12 -14
-27 -28 l-28 -24 24 28 c23 25 31 32 31 24z m-80 -80 c0 -2 -12 -14 -27 -28
l-28 -24 24 28 c23 25 31 32 31 24z m-80 -80 c0 -2 -12 -14 -27 -28 l-28 -24
24 28 c23 25 31 32 31 24z m-80 -80 c0 -2 -12 -14 -27 -28 l-28 -24 24 28 c23
25 31 32 31 24z m-80 -80 c0 -2 -12 -14 -27 -28 l-28 -24 24 28 c23 25 31 32
31 24z"/>
</g>
</svg>
